<?xml version="1.0" encoding="iso-8859-1"?>
<!-- Uploaded to: SVG Repo, www.svgrepo.com, Generator: SVG Repo Mixer Tools -->
<svg height="800px" width="800px" version="1.1" id="Layer_1" xmlns="http://www.w3.org/2000/svg" xmlns:xlink="http://www.w3.org/1999/xlink" 
	 viewBox="0 0 392.533 392.533" xml:space="preserve">
<g>
	<path style="fill:#56ACE0;" d="M97.422,334.093c2.909-21.463,19.135-38.788,40.081-43.378v-17.778
		c-72.016,1.875-115.653,21.204-115.653,32C21.786,311.919,44.8,327.24,97.422,334.093z"/>
	<path style="fill:#56ACE0;" d="M159.354,290.78c20.945,4.59,37.172,21.85,40.081,43.378c52.622-6.788,75.636-22.174,75.636-29.026
		c0-10.796-43.636-30.19-115.782-32v17.649H159.354z"/>
</g>
<path style="fill:#FFC10D;" d="M178.101,341.075c0-16.356-13.382-29.737-29.737-29.737s-29.737,13.382-29.737,29.737
	s13.382,29.737,29.737,29.737S178.101,357.43,178.101,341.075z"/>
<path style="fill:#FFFFFF;" d="M148.428,58.893c10.214,0,18.554-8.275,18.554-18.554c0-10.214-8.275-18.554-18.554-18.554
	c-10.214,0-18.554,8.275-18.554,18.554C129.875,50.618,138.214,58.893,148.428,58.893z"/>
<circle style="fill:#56ACE0;" cx="293.754" cy="98.715" r="29.673"/>
<path style="fill:#194F82;" d="M293.754,197.56c54.497,0,98.78-44.283,98.78-98.78S348.25,0.065,293.754,0.065
	c-44.541,0-82.618,29.673-94.578,71.176c-5.689-2.909-11.83-5.43-18.101-7.434c4.784-6.659,7.564-14.675,7.564-23.467
	C188.638,18.101,170.537,0,148.299,0S107.96,18.101,107.96,40.339c0,8.727,2.844,16.873,7.564,23.402
	c-45.446,14.158-78.61,56.566-78.61,106.537v32.323c0,30.061-10.343,59.798-29.22,83.846C2.78,292.008,0,298.15,0,305.002
	c0,35.297,68.137,47.515,99.168,51.2c6.465,21.01,26.117,36.331,49.196,36.331s42.731-15.321,49.196-36.331
	c31.095-3.685,99.362-15.903,99.232-51.2c-0.065-11.766-10.537-22.174-10.99-22.82c-28.057-36.137-26.053-90.893-26.053-90.893
	C270.675,195.297,282.117,197.56,293.754,197.56z M275.006,305.002c0,6.853-23.014,22.238-75.636,29.026
	c-2.909-21.463-19.135-38.788-40.081-43.378v-17.778C231.37,274.812,275.006,294.141,275.006,305.002z M118.691,341.075
	c0-16.356,13.382-29.737,29.737-29.737s29.737,13.382,29.737,29.737s-13.382,29.737-29.737,29.737S118.691,357.43,118.691,341.075z
	 M137.568,273.002v17.778c-20.945,4.59-37.172,21.85-40.081,43.378c-52.622-6.788-75.636-22.174-75.636-29.026
	C21.786,294.141,65.552,274.812,137.568,273.002z M148.687,250.958c-0.065,0-0.129,0-0.259,0c-0.129,0-0.129,0-0.259,0
	c-37.236,0-74.667,4.784-102.594,14.093c6.465-14.998,10.731-30.901,12.347-47.063l2.263-63.16
	c7.434-42.02,44.024-74.02,88.178-74.02c49.455,0,89.665,40.21,89.665,89.665c0,0-4.073,65.552,13.123,94.642
	C223.224,255.741,185.859,251.022,148.687,250.958z M148.428,21.851c10.214,0,18.554,8.275,18.554,18.554
	c0,10.214-8.275,18.554-18.554,18.554c-10.214,0-18.554-8.275-18.554-18.554C129.875,30.19,138.214,21.851,148.428,21.851z
	 M293.754,21.851c42.408,0,76.994,34.521,76.994,76.865s-34.521,76.994-76.994,76.994c-11.83,0-23.467-2.715-34.004-7.887h-0.065
	c-0.776-33.875-16.614-64-41.115-83.911c-0.065-0.065-0.065-0.259-0.129-0.259C225.487,48.032,256.84,21.851,293.754,21.851z"/>
<path style="fill:#FFC10D;" d="M148.428,250.958c0.065,0,0.129,0,0.259,0c26.57,0,53.269,2.457,76.477,7.24
	c-5.883-17.842-8.857-36.525-8.857-55.661v-32.323c0-37.43-30.448-67.814-67.814-67.814c-32.065,0-58.893,22.303-65.939,52.234
	h35.297c6.012,0,10.925,4.848,10.925,10.925c0,6.012-4.848,10.925-10.925,10.925H80.679v19.523h16.679
	c6.012,0,10.925,4.848,10.925,10.925s-4.848,10.925-10.925,10.925h-17.39c-1.228,13.77-4.073,27.281-8.404,40.339
	c23.337-4.784,49.972-7.24,76.671-7.24C148.299,250.958,148.364,250.958,148.428,250.958z"/>
<path style="fill:#194F82;" d="M327.305,109.705c6.012,0,10.925-4.848,10.925-10.925c0-6.077-4.849-10.925-10.925-10.925h-22.626
	V47.515c0-6.012-4.848-10.925-10.925-10.925c-6.077,0-10.925,4.848-10.925,10.925v51.2c0,6.012,4.848,10.925,10.925,10.925
	L327.305,109.705L327.305,109.705z"/>
</svg>