<?xml version="1.0" encoding="iso-8859-1"?>
<!-- Uploaded to: SVG Repo, www.svgrepo.com, Generator: SVG Repo Mixer Tools -->
<svg height="800px" width="800px" version="1.1" id="Layer_1" xmlns="http://www.w3.org/2000/svg" xmlns:xlink="http://www.w3.org/1999/xlink" 
	 viewBox="0 0 392.598 392.598" xml:space="preserve">
<path style="fill:#FFFFFF;" d="M370.78,108.994H21.818v250.828c0,6.012,4.848,10.925,10.925,10.925h327.111
	c6.012,0,10.925-4.848,10.925-10.925V108.994L370.78,108.994z"/>
<path style="fill:#56ACE0;" d="M101.075,138.408c6.012,0,10.925,4.848,10.925,10.925c0,6.012-4.848,10.925-10.925,10.925H43.604
	v19.135h30.125c6.012,0,10.925,4.848,10.925,10.925c0,6.012-4.848,10.925-10.925,10.925H43.604v147.717h305.325V108.994H43.604
	v29.349h57.471V138.408z"/>
<path style="fill:#194F82;" d="M87.628,218.699l40.663,17.455v63.224c0,3.685,1.939,7.176,5.107,9.18
	c38.271,24.889,89.729,22.949,125.867,0c3.168-2.004,5.107-5.495,5.107-9.18v-63.224l25.406-10.925v59.475
	c0,6.012,4.849,10.925,10.925,10.925s10.925-4.848,10.925-10.925v-76.089c-0.065-4.59-2.457-7.822-6.594-10.02l-104.469-44.8
	c-2.78-1.164-5.883-1.164-8.598,0l-104.21,44.8C79.354,201.826,78.642,214.368,87.628,218.699z M242.521,293.107
	c-28.638,15.774-63.741,15.774-92.444,0v-47.58l41.826,17.907c2.78,1.164,5.624,1.228,8.598,0l42.02-18.036V293.107z
	 M196.17,175.709l76.8,32.905l-76.8,32.905l-76.606-32.905L196.17,175.709z"/>
<g>
	<path style="fill:#FFFFFF;" d="M191.903,263.434l-41.826-17.907v47.58c28.638,15.774,63.741,15.774,92.444,0v-47.709l-42.02,18.036
		C197.463,264.663,194.618,264.598,191.903,263.434z"/>
	<polygon style="fill:#FFFFFF;" points="119.564,208.614 196.17,241.519 272.97,208.614 196.17,175.709 	"/>
</g>
<path style="fill:#194F82;" d="M359.855,0H32.743C14.707,0,0.032,14.675,0.032,32.711v327.111c0,18.101,14.675,32.776,32.711,32.776
	h327.111c18.036,0,32.711-14.675,32.711-32.711V32.711C392.566,14.675,377.891,0,359.855,0z M370.78,359.822
	c0,6.012-4.848,10.925-10.925,10.925H32.743c-6.012,0-10.925-4.848-10.925-10.925V108.994H370.78L370.78,359.822L370.78,359.822z
	 M370.78,87.208H21.818V32.711c0-6.012,4.848-10.925,10.925-10.925h327.111c6.012,0,10.925,4.848,10.925,10.925v54.562l0,0V87.208z"
	/>
<path style="fill:#FFC10D;" d="M370.78,32.711c0-6.012-4.848-10.925-10.925-10.925H32.743c-6.012,0-10.925,4.848-10.925,10.925
	v54.562H370.78L370.78,32.711L370.78,32.711z"/>
<g>
	<path style="fill:#194F82;" d="M282.279,43.572h-10.602c-6.012,0-10.925,4.848-10.925,10.925s4.848,10.925,10.925,10.925h10.602
		c6.012,0,10.925-4.848,10.925-10.925S288.356,43.572,282.279,43.572z"/>
	<path style="fill:#194F82;" d="M226.489,43.572H54.529c-6.012,0-10.925,4.848-10.925,10.925s4.848,10.925,10.925,10.925h172.024
		c6.012,0,10.925-4.848,10.925-10.925S232.566,43.572,226.489,43.572z"/>
	<path style="fill:#194F82;" d="M338.004,43.572h-10.602c-6.012,0-10.925,4.848-10.925,10.925s4.848,10.925,10.925,10.925h10.602
		c6.012,0,10.925-4.848,10.925-10.925S344.016,43.572,338.004,43.572z"/>
</g>
</svg>