<?xml version="1.0" encoding="iso-8859-1"?>
<!-- Uploaded to: SVG Repo, www.svgrepo.com, Generator: SVG Repo Mixer Tools -->
<svg height="800px" width="800px" version="1.1" id="Layer_1" xmlns="http://www.w3.org/2000/svg" xmlns:xlink="http://www.w3.org/1999/xlink" 
	 viewBox="0 0 392.663 392.663" xml:space="preserve">
<path style="fill:#FFFFFF;" d="M347.281,185.374h23.467V54.594c0-18.036-14.675-32.711-32.711-32.711H207.192V45.35
	c0,6.012-4.848,10.925-10.925,10.925s-10.925-4.848-10.925-10.925V21.754H54.562c-18.036,0-32.711,14.675-32.711,32.711v130.844
	h23.467c6.012,0,10.925,4.848,10.925,10.925c0,6.012-4.848,10.925-10.925,10.925H21.786v130.844
	c0,18.036,14.675,32.711,32.711,32.711h130.78v-23.467c0-6.012,4.848-10.925,10.925-10.925c6.012,0,10.925,4.848,10.925,10.925
	v23.467h130.844c18.036,0,32.711-14.675,32.711-32.711v-130.78h-23.467c-6.012,0-10.925-4.848-10.925-10.925
	C336.356,190.287,341.204,185.374,347.281,185.374z"/>
<path style="fill:#FFC10D;" d="M65.034,65.196v262.206h262.271V65.196H65.034z"/>
<g>
	<path style="fill:#194F82;" d="M196.202,207.224H134.4c-6.012,0-10.925-4.848-10.925-10.925c0-6.077,4.848-10.925,10.925-10.925
		h50.877V98.683c0-6.012,4.848-10.925,10.925-10.925s10.925,4.848,10.925,10.925v97.616
		C207.063,202.311,202.214,207.224,196.202,207.224z"/>
	<path style="fill:#194F82;" d="M310.691,97.261l24.372-24.372c4.267-4.267,4.267-11.119,0-15.45
		c-4.267-4.267-11.119-4.267-15.451,0L295.24,81.81c-4.267,4.267-4.267,11.119,0,15.451
		C299.572,101.463,306.489,101.463,310.691,97.261z"/>
	<path style="fill:#194F82;" d="M81.778,295.337l-24.372,24.372c-4.267,4.267-4.267,11.119,0,15.451
		c4.267,4.267,11.119,4.267,15.451,0l24.372-24.372c4.267-4.267,4.267-11.119,0-15.451
		C92.962,291.135,86.044,291.135,81.778,295.337z"/>
	<path style="fill:#194F82;" d="M310.756,295.337c-4.267-4.267-11.119-4.267-15.451,0c-4.267,4.267-4.267,11.119,0,15.451
		l24.372,24.372c4.267,4.267,11.119,4.267,15.451,0c4.267-4.267,4.267-11.119,0-15.451L310.756,295.337z"/>
	<path style="fill:#194F82;" d="M81.778,97.261c4.267,4.267,11.119,4.267,15.451,0c4.267-4.267,4.267-11.119,0-15.451L72.857,57.568
		c-4.267-4.267-11.119-4.267-15.451,0c-4.267,4.267-4.267,11.119,0,15.451L81.778,97.261z"/>
	<path style="fill:#194F82;" d="M337.972,0.032H54.562C24.501,0.032,0,24.533,0,54.594v283.539
		c0,29.996,24.501,54.497,54.562,54.497h283.539c30.061,0,54.562-24.501,54.562-54.562V54.594
		C392.533,24.533,368.032,0.032,337.972,0.032z M337.972,370.78h-130.78v-23.467c0-6.012-4.848-10.925-10.925-10.925
		s-10.925,4.848-10.925,10.925v23.467H54.562c-18.036,0-32.711-14.675-32.711-32.711V207.224h23.467
		c6.012,0,10.925-4.848,10.925-10.925c0-6.077-4.848-10.925-10.925-10.925H21.786V54.594c0-18.036,14.675-32.711,32.711-32.711
		h130.78V45.35c0,6.012,4.848,10.925,10.925,10.925c6.012,0,10.925-4.848,10.925-10.925V21.754h130.844
		c18.036,0,32.711,14.675,32.711,32.711v130.844h-23.467c-6.012,0-10.925,4.848-10.925,10.925c0,6.012,4.848,10.925,10.925,10.925
		h23.467v130.844C370.747,356.105,356.073,370.78,337.972,370.78z"/>
	<path style="fill:#194F82;" d="M196.267,87.822c-6.012,0-10.925,4.848-10.925,10.925v86.691H134.4
		c-6.012,0-10.925,4.848-10.925,10.925c0,6.012,4.848,10.925,10.925,10.925h61.867c6.012,0,10.925-4.848,10.925-10.925V98.683
		C207.192,92.671,202.279,87.822,196.267,87.822z"/>
</g>
</svg>