<?xml version="1.0" encoding="iso-8859-1"?>
<!-- Uploaded to: SVG Repo, www.svgrepo.com, Generator: SVG Repo Mixer Tools -->
<svg height="800px" width="800px" version="1.1" id="Layer_1" xmlns="http://www.w3.org/2000/svg" xmlns:xlink="http://www.w3.org/1999/xlink" 
	 viewBox="0 0 392.533 392.533" xml:space="preserve">
<path style="fill:#194F82;" d="M302.254,119.208h-10.925V82.295c0-18.036-14.675-32.711-32.711-32.711h-35.232v-0.517
	C223.385,22.044,201.341,0,174.319,0s-49.067,22.044-49.067,49.067v0.517h-34.78c-18.036,0-32.711,14.675-32.711,32.711v229.754
	c0,18.036,14.675,32.711,32.711,32.711h21.786v15.063c0,18.036,14.675,32.711,32.711,32.711h112.873
	c8.727,0,16.937-3.426,23.079-9.568l44.283-44.283c6.206-6.206,9.568-14.352,9.568-23.079V152.048
	C334.901,133.883,320.226,119.208,302.254,119.208z M258.618,71.37c6.012,0,10.925,4.848,10.925,10.925v36.913h-46.158V71.37
	C223.385,71.37,258.618,71.37,258.618,71.37z M147.038,49.067c0-15.063,12.218-27.281,27.281-27.281S201.6,34.004,201.6,49.067
	v0.517h-54.562V49.067L147.038,49.067z M90.472,322.909c-6.012,0-10.925-4.848-10.925-10.925V82.295
	c0-6.012,4.848-10.925,10.925-10.925h111.063v47.838h-21.786V96.646c0-6.012-4.848-10.925-10.925-10.925
	c-6.012,0-10.925,4.848-10.925,10.925v22.562h-12.929c-18.036,0-32.711,14.675-32.711,32.711v170.99H90.472L90.472,322.909z
	 M179.749,140.994h21.786v6.723c0,6.012-4.848,10.925-10.925,10.925s-10.925-4.848-10.925-10.925v-6.723H179.749z M134.173,359.822
	V151.984c0-6.012,4.848-10.925,10.925-10.925h12.929v6.723c0,18.036,14.675,32.711,32.711,32.711s32.711-14.675,32.711-32.711
	v-6.723h56.954h0.065h0.065h21.786c6.012,0,10.925,4.848,10.925,10.925v161.745h-46.222c-6.012,0-10.925,4.848-10.925,10.925v46.158
	H145.034C139.022,370.747,134.173,365.834,134.173,359.822z M277.882,355.297v-19.846h19.846L277.882,355.297z"/>
<g>
	<path style="fill:#FFC10D;" d="M223.321,71.37v47.838h46.158V82.295c0-6.012-4.848-10.925-10.925-10.925
		C258.553,71.37,223.321,71.37,223.321,71.37z"/>
	<path style="fill:#FFC10D;" d="M157.963,119.208V96.646c0-6.012,4.848-10.925,10.925-10.925c6.012,0,10.925,4.848,10.925,10.925
		v22.562h21.721V71.37H90.472c-6.012,0-10.925,4.848-10.925,10.925v229.754c0,6.012,4.848,10.925,10.925,10.925h21.786V151.919
		c0-18.036,14.675-32.711,32.711-32.711H157.963z"/>
</g>
<g>
	<path style="fill:#FFFFFF;" d="M266.892,313.665h46.222V151.919c0-6.012-4.849-10.925-10.925-10.925h-21.721h-0.065h-0.065h-56.954
		v6.723c0,18.036-14.675,32.711-32.711,32.711s-32.711-14.675-32.711-32.711v-6.723h-12.929c-6.012,0-10.925,4.848-10.925,10.925
		v207.838c0,6.012,4.848,10.925,10.925,10.925h111.063v-46.158C256.032,318.513,260.945,313.665,266.892,313.665z"/>
	<path style="fill:#FFFFFF;" d="M190.674,158.642c6.012,0,10.925-4.848,10.925-10.925v-6.723h-21.786v6.723
		C179.749,153.794,184.598,158.642,190.674,158.642z"/>
</g>
<path style="fill:#56ACE0;" d="M291.329,162.78h-71.628c-5.495,10.537-16.356,17.648-28.962,17.648s-23.596-7.176-28.962-17.648
	h-5.689v186.053h97.422l2.651-2.65v-21.721c0-6.012,4.848-10.925,10.925-10.925h21.721l2.715-2.715V162.78H291.329z"/>
<polygon style="fill:#FFFFFF;" points="277.882,355.297 297.664,335.451 277.882,335.451 "/>
<g>
	<path style="fill:#194F82;" d="M262.82,221.22h-78.352c-6.012,0-10.925-4.848-10.925-10.925c0-6.077,4.848-10.925,10.925-10.925
		h78.352c6.012,0,10.925,4.848,10.925,10.925C273.745,216.372,268.832,221.22,262.82,221.22z"/>
	<path style="fill:#194F82;" d="M262.82,278.303h-78.352c-6.012,0-10.925-4.848-10.925-10.925c0-6.012,4.848-10.925,10.925-10.925
		h78.352c6.012,0,10.925,4.848,10.925,10.925C273.745,273.455,268.832,278.303,262.82,278.303z"/>
	<path style="fill:#194F82;" d="M223.385,335.451h-39.046c-6.012,0-10.925-4.848-10.925-10.925c0-6.012,4.848-10.925,10.925-10.925
		h39.046c6.012,0,10.925,4.848,10.925,10.925C234.311,330.537,229.462,335.451,223.385,335.451z"/>
</g>
</svg>