<?xml version="1.0" encoding="iso-8859-1"?>
<!-- Uploaded to: SVG Repo, www.svgrepo.com, Generator: SVG Repo Mixer Tools -->
<svg height="800px" width="800px" version="1.1" id="Layer_1" xmlns="http://www.w3.org/2000/svg" xmlns:xlink="http://www.w3.org/1999/xlink" 
	 viewBox="0 0 392.577 392.577" xml:space="preserve">
<path style="fill:#FFC10D;" d="M103.4,254.513c-3.879-4.008-10.731-4.461-15.386,0l-9.05,8.986l25.471,25.471
	c4.267,4.267,4.267,11.119,0,15.386s-11.119,4.267-15.386,0l-25.471-25.471l-14.933,14.998l11.96,11.96
	c4.267,4.267,4.267,11.119,0,15.386s-11.119,4.267-15.386,0l-11.96-11.895l-4.848,4.848c-8.727,8.727-8.727,23.014,0,31.806
	l18.166,18.166c9.374,9.18,23.725,8.339,31.806,0l59.669-59.669c4.267-4.267,4.267-11.119,0-15.386L103.4,254.513z"/>
<g>
	<path style="fill:#FFFFFF;" d="M176.256,240.808c-9.18-7.111-17.455-15.321-24.501-24.501l-27.863,27.863l24.501,24.501
		L176.256,240.808z"/>
	<circle style="fill:#FFFFFF;" cx="258.163" cy="134.4" r="112.679"/>
</g>
<path style="fill:#194F82;" d="M258.163,0c-74.214,0-134.4,60.121-134.4,134.4c0,22.885,5.689,44.412,15.838,63.289l-33.616,33.616
	c-11.83-4.073-24.178-0.776-33.358,7.887l-59.669,59.669c-17.261,17.261-17.261,45.382,0,62.578l18.166,18.166
	c17.39,17.842,47.063,16.743,62.578,0l59.669-59.669c8.986-8.986,11.507-21.915,7.822-33.228l33.745-33.745
	c18.877,10.02,40.339,15.774,63.224,15.774c74.214,0,134.4-60.121,134.4-134.4S332.377,0,258.163,0z M138.05,304.549l-59.669,59.669
	c-8.016,8.339-22.432,9.18-31.806,0L28.41,346.053c-8.727-8.727-8.727-23.014,0-31.806l4.848-4.848l11.96,11.96
	c4.267,4.267,11.119,4.267,15.386,0s4.267-11.119,0-15.386l-11.96-11.96l14.998-14.998l25.471,25.471
	c4.267,4.267,11.119,4.267,15.386,0s4.267-11.119,0-15.386l-25.471-25.471l8.986-8.986c4.655-4.461,11.507-4.008,15.386,0
	l34.651,34.586C142.252,293.43,142.252,300.283,138.05,304.549z M123.893,244.17l27.927-27.927
	c7.111,9.18,15.321,17.455,24.501,24.501l-27.927,27.927L123.893,244.17z M145.549,134.4c0-62.19,50.489-112.679,112.679-112.679
	S370.842,72.145,370.842,134.4s-50.424,112.614-112.679,112.614S145.549,196.59,145.549,134.4z"/>
<path style="fill:#56ACE0;" d="M258.163,224.711c-24.113,0-46.804-9.438-63.935-26.44c-35.232-35.232-35.232-92.574,0-127.806
	c17.067-17.067,39.822-26.44,63.935-26.44c24.113,0,46.804,9.438,63.935,26.44c35.232,35.232,35.232,92.574,0,127.806
	C305.032,215.273,282.276,224.711,258.163,224.711z"/>
<g>
	<path style="fill:#194F82;" d="M251.699,76.541c3.556-3.556,9.438-3.556,12.994,0c4.719,4.59,12.024,4.008,15.386,0
		c4.267-4.267,4.267-11.119,0-15.386c-12.024-12.024-31.741-12.024-43.83,0c-4.267,4.267-4.267,11.119,0,15.386
		C240.579,80.808,247.432,80.808,251.699,76.541z"/>
	<path style="fill:#194F82;" d="M327.012,89.794c-6.012,0-10.925,4.848-10.925,10.925c0,10.731-8.727,19.459-19.459,19.459
		c-6.012,0-10.925,4.848-10.925,10.925c0,6.012,4.849,10.925,10.925,10.925c22.691,0,41.244-18.489,41.244-41.244
		C337.937,94.707,333.088,89.794,327.012,89.794z"/>
	<path style="fill:#194F82;" d="M264.305,161.293c4.267-4.267,4.267-11.119,0-15.386c-7.24-7.24-7.24-19.006,0-26.246
		c4.267-4.267,4.267-11.119,0-15.386c-4.267-4.267-11.119-4.267-15.386,0c-15.774,15.774-15.774,41.309,0,57.083
		C253.315,165.754,260.62,165.107,264.305,161.293z"/>
	<path style="fill:#194F82;" d="M310.527,168.275c-5.56-2.392-11.895,0.129-14.287,5.624c-8.016,16.937-24.501,22.497-40.598,15.968
		c-5.495-2.392-11.895,0.129-14.287,5.624c-2.392,5.495,0.129,11.895,5.624,14.287c25.471,11.572,58.44-0.259,69.236-27.345
		C318.608,177.131,316.086,170.667,310.527,168.275z"/>
	<path style="fill:#194F82;" d="M187.052,108.477c-5.43,2.715-7.499,9.244-4.784,14.61c3.879,7.434,0.84,18.295-7.434,22.109
		c-5.43,2.715-7.564,9.18-4.913,14.61c2.521,5.172,9.762,7.434,14.61,4.913c18.101-8.145,27.604-32.065,17.131-51.459
		C198.947,107.96,192.418,105.762,187.052,108.477z"/>
</g>
</svg>