<?xml version="1.0" encoding="iso-8859-1"?>
<!-- Uploaded to: SVG Repo, www.svgrepo.com, Generator: SVG Repo Mixer Tools -->
<svg height="800px" width="800px" version="1.1" id="Layer_1" xmlns="http://www.w3.org/2000/svg" xmlns:xlink="http://www.w3.org/1999/xlink" 
	 viewBox="0 0 392.666 392.666" xml:space="preserve">
<path style="fill:#FFFFFF;" d="M347.702,75.067l-63.16-50.618c-6.853-6.012-18.036-3.685-23.014,2.327
	c-20.558,24.048-43.119,46.804-64.97,68.848c-38.594,38.853-78.481,78.998-106.796,126.384c-4.331,7.176-2.715,16.549,3.685,21.721
	l81.648,65.552c6.335,5.107,15.968,4.59,21.915-1.099c40.081-38.012,70.723-85.721,100.202-131.749
	c16.743-26.117,34.069-53.075,53.075-78.352C355.847,90.712,354.619,80.692,347.702,75.067z"/>
<g>
	<path style="fill:#56ACE0;" d="M78.837,303.916l40.727,32.582c2.909,2.392,6.465,3.62,10.279,3.62c5.042,0,9.762-2.263,12.8-6.206
		l11.766-14.61l-66.392-53.269l-11.766,14.61C70.627,287.819,71.79,298.227,78.837,303.916z"/>
	<polygon style="fill:#56ACE0;" points="82.78,368.886 99.33,348.263 71.79,326.284 47.031,357.185 	"/>
</g>
<path style="fill:#FFC10D;" d="M274.586,45.589c-20.04,23.079-66.715,70.141-68.848,72.339l49.131,10.796
	c5.883,1.293,9.568,7.111,8.275,12.994c-1.293,5.883-7.111,9.568-12.994,8.275l-62.513-13.77
	c-8.339,8.663-16.549,17.261-24.436,25.988l22.174,3.814c5.947,1.034,9.891,6.659,8.857,12.606
	c-1.034,5.947-6.659,9.956-12.606,8.857l-35.362-6.012c-12.671,15.127-24.436,30.836-34.78,47.58l73.891,59.216
	c36.331-35.426,63.935-78.416,93.091-123.798c15.968-24.889,32.453-50.618,50.618-75.184L274.586,45.589z"/>
<path style="fill:#194F82;" d="M360.502,58.647L297.73,8.352c-15.903-12.606-38.788-10.99-53.075,5.172
	c-19.846,23.273-42.02,45.576-63.418,67.232c-39.24,39.564-79.838,80.42-109.317,129.81c-7.628,12.735-7.046,28.444,0.453,40.404
	l-13.059,16.291c-10.279,12.8-10.925,30.19-2.909,43.507l-36.202,45.188c-2.263,2.78-2.909,6.465-1.939,9.891
	c1.034,3.426,3.62,6.077,7.046,7.24l57.859,19.006c4.331,1.487,9.051,0,11.895-3.556l22.82-28.444
	c15.127,5.107,31.677-0.065,41.891-12.347l13.059-16.291c14.933,5.495,30.319,0.84,39.499-8.339
	c41.762-39.564,72.857-88.113,102.917-135.046c16.485-25.6,33.358-52.105,51.782-76.477
	C379.572,94.914,376.728,71.641,360.502,58.647z M82.78,368.886L47.096,357.12l24.824-30.901l27.41,22.044L82.78,368.886z
	 M142.643,334.041c-4.396,6.4-16.162,8.339-23.079,2.521l-40.727-32.711c-7.111-5.624-8.21-16.097-2.521-23.079l11.766-14.61
	l66.392,53.269L142.643,334.041z M350.352,98.017c-19.006,25.277-36.331,52.234-53.075,78.352
	c-29.543,46.158-60.121,93.737-100.202,131.749c-5.947,5.624-15.58,6.206-21.915,1.099l-81.713-65.552
	c-6.4-5.172-8.016-14.481-3.685-21.721c28.38-47.321,68.202-87.467,106.796-126.319c21.85-22.044,44.412-44.8,64.97-68.848
	c5.042-6.012,16.162-8.339,23.014-2.327l63.16,50.618C354.619,80.692,355.847,90.712,350.352,98.017z"/>
</svg>