<?xml version="1.0" encoding="iso-8859-1"?>
<!-- Uploaded to: SVG Repo, www.svgrepo.com, Generator: SVG Repo Mixer Tools -->
<svg height="800px" width="800px" version="1.1" id="Layer_1" xmlns="http://www.w3.org/2000/svg" xmlns:xlink="http://www.w3.org/1999/xlink" 
	 viewBox="0 0 392.555 392.555" xml:space="preserve">
<path style="fill:#194F82;" d="M389.526,311.898l-28.962-65.81V65.465c0-18.036-14.675-32.711-32.711-32.711H64.613
	c-18.036,0-32.711,14.675-32.711,32.711v180.493L2.94,311.898c-9.891,21.657,6.335,47.903,31.289,47.903h324.073
	C383.32,359.801,399.611,333.878,389.526,311.898z M53.752,65.465c0-6.012,4.848-10.925,10.925-10.925h263.176
	c6.012,0,10.925,4.848,10.925,10.925v171.96H53.752V65.465z M358.237,338.015H34.229c-8.663,0.711-15.386-10.408-11.313-17.325
	l27.022-61.414h292.525l27.022,61.414C373.429,328.189,366.447,338.597,358.237,338.015z"/>
<path style="fill:#FFFFFF;" d="M327.918,54.605H64.613c-6.012,0-10.925,4.848-10.925,10.925v171.96h284.962V65.53
	C338.779,59.518,333.865,54.605,327.918,54.605z"/>
<path style="fill:#FFC10D;" d="M342.593,259.211H49.938l-27.022,61.414c-4.073,6.982,2.715,18.036,11.313,17.325h324.073
	c8.21,0.517,15.127-9.826,11.313-17.325L342.593,259.211z"/>
<path style="fill:#56ACE0;" d="M75.538,76.391v48.226h50.295c6.012,0,10.925,4.848,10.925,10.925
	c0,6.012-4.848,10.925-10.925,10.925H75.538v19.459h22.174c6.012,0,10.925,4.848,10.925,10.925c0,6.012-4.848,10.925-10.925,10.925
	H75.538v49.713h241.39V76.52H75.538V76.391z"/>
<path style="fill:#194F82;" d="M229.203,287.72h-65.81c-6.012,0-10.925,4.848-10.925,10.925s4.848,10.925,10.925,10.925h65.81
	c6.012,0,10.925-4.848,10.925-10.925C240.128,292.568,235.215,287.72,229.203,287.72z"/>
</svg>