<?xml version="1.0" encoding="iso-8859-1"?>
<!-- Uploaded to: SVG Repo, www.svgrepo.com, Generator: SVG Repo Mixer Tools -->
<svg height="800px" width="800px" version="1.1" id="Layer_1" xmlns="http://www.w3.org/2000/svg" xmlns:xlink="http://www.w3.org/1999/xlink" 
	 viewBox="0 0 392.469 392.469" xml:space="preserve">
<path style="fill:#194F82;" d="M302.448,286.255c0-14.998-8.404-28.38-21.01-35.297c4.008-13.834,0.517-29.285-10.02-39.887
	c-11.378-10.667-24.566-14.093-39.887-10.02c-4.59-8.275-11.96-14.739-20.687-18.166l56.113-153.6C272.065,15.063,261.527,0,246.4,0
	H145.939c-15.127,0-25.665,15.063-20.493,29.285l56.178,153.6c-8.792,3.491-16.162,9.891-20.687,18.166
	c-14.998-3.685-28.38-0.905-39.887,10.02c-10.602,10.602-14.093,26.053-10.02,39.887c-12.606,6.982-21.01,20.299-21.01,35.297
	s8.404,28.38,21.01,35.297c-4.008,13.834-0.517,29.285,10.02,39.887c9.244,9.632,25.6,14.869,39.887,10.02
	c6.982,12.606,20.299,21.01,35.297,21.01s28.38-8.404,35.297-21.01c14.158,4.396,30.449-0.259,39.887-10.02
	c10.602-10.602,14.093-26.052,10.02-39.887C293.98,314.57,302.448,301.188,302.448,286.255z M145.939,21.721H246.4l-50.23,137.374
	L145.939,21.721z M264.695,304.485c-8.469,0.905-11.96,11.184-7.176,17.325c5.495,7.37,4.784,17.713-1.616,24.178
	c-6.335,6.335-17.002,7.046-24.113,1.616c-6.788-4.848-15.451-1.422-17.325,7.176c-1.293,9.051-9.115,15.903-18.23,15.903
	s-16.937-6.853-18.23-15.903c-0.84-8.21-10.408-12.024-17.325-7.176c-7.176,5.43-17.778,4.719-24.113-1.616
	c-6.4-6.4-7.111-16.873-1.616-24.178c5.107-6.853,0.646-16.549-7.176-17.325c-9.051-1.293-15.903-9.115-15.903-18.23
	c0-9.115,6.788-16.937,15.903-18.23c8.339-0.84,11.895-10.796,7.176-17.325c-5.495-7.37-4.784-17.713,1.616-24.178
	c6.335-6.335,17.002-7.046,24.113-1.616c6.465,5.042,16.097,1.034,17.325-7.176c1.293-9.051,9.115-15.903,18.23-15.903
	s16.937,6.853,18.23,15.903c0.84,7.499,10.343,12.541,17.325,7.176c7.176-5.43,17.778-4.719,24.113,1.616
	c6.4,6.4,7.111,16.873,1.616,24.178c-4.913,6.465-1.099,15.903,7.176,17.325c9.051,1.293,15.903,9.115,15.903,18.23
	S273.745,303.127,264.695,304.485z"/>
<path style="fill:#FFC10D;" d="M264.695,267.96c-8.275-1.422-12.154-10.796-7.176-17.325c5.495-7.37,4.784-17.713-1.616-24.178
	c-6.335-6.335-17.002-7.046-24.113-1.616c-6.982,5.301-16.549,0.323-17.325-7.176c-1.293-9.051-9.115-15.903-18.23-15.903
	s-16.937,6.853-18.23,15.903c-1.293,8.21-10.796,12.218-17.325,7.176c-7.176-5.43-17.778-4.719-24.113,1.616
	c-6.4,6.4-7.111,16.873-1.616,24.178c4.719,6.465,1.164,16.485-7.176,17.325c-9.051,1.293-15.903,9.115-15.903,18.23
	c0,9.115,6.788,16.937,15.903,18.23c7.822,0.776,12.283,10.408,7.176,17.325c-5.495,7.37-4.784,17.713,1.616,24.178
	c6.335,6.335,17.002,7.046,24.113,1.616c6.982-4.849,16.485-1.099,17.325,7.176c1.293,9.051,9.115,15.903,18.23,15.903
	s16.937-6.853,18.23-15.903c1.875-8.598,10.537-12.024,17.325-7.176c7.176,5.43,17.778,4.719,24.113-1.616
	c6.4-6.4,7.111-16.873,1.616-24.178c-4.784-6.077-1.293-16.356,7.176-17.325c9.051-1.293,15.903-9.115,15.903-18.23
	S273.745,269.317,264.695,267.96z"/>
<path style="fill:#FFFFFF;" d="M196.17,254.901c-17.261,0-31.289,13.964-31.289,31.289c0,17.261,14.093,31.289,31.289,31.289
	c17.261,0,31.289-14.093,31.289-31.289S213.43,254.901,196.17,254.901z"/>
<path style="fill:#194F82;" d="M196.17,233.115c-29.285,0-53.075,23.79-53.075,53.075c0,29.285,23.79,53.075,53.075,53.075
	s53.075-23.79,53.075-53.075C249.244,256.905,225.455,233.115,196.17,233.115z M196.17,317.543
	c-17.261,0-31.289-14.093-31.289-31.289s14.093-31.289,31.289-31.289c17.261,0,31.289,13.964,31.289,31.289
	C227.459,303.451,213.43,317.543,196.17,317.543z"/>
</svg>