<?xml version="1.0" encoding="iso-8859-1"?>
<!-- Uploaded to: SVG Repo, www.svgrepo.com, Generator: SVG Repo Mixer Tools -->
<svg height="800px" width="800px" version="1.1" id="Layer_1" xmlns="http://www.w3.org/2000/svg" xmlns:xlink="http://www.w3.org/1999/xlink" 
	 viewBox="0 0 392.469 392.469" xml:space="preserve">
<g>
	<path style="fill:#FFFFFF;" d="M104.145,211.498v-89.988H32.711c-6.012,0-10.925,4.848-10.925,10.925v68.073
		c0,6.012,4.848,10.925,10.925,10.925h71.499v0.065H104.145z"/>
	<path style="fill:#FFFFFF;" d="M304.162,34.109l-178.23,83.459v97.81l178.166,83.459c7.628,3.491,14.222-2.78,13.834-8.792V42.965
		C317.608,35.208,310.885,31.652,304.162,34.109z"/>
</g>
<path style="fill:#56ACE0;" d="M267.766,75.224v49.002c0,6.012-4.848,10.925-10.925,10.925c-6.077,0-10.925-4.848-10.925-10.925
	V85.438l-24.372,11.378v22.432c0,6.012-4.848,10.925-10.925,10.925c-6.012,0-10.925-4.848-10.925-10.925V107.03l-51.976,24.372
	v70.077l148.364,69.495V61.971L267.766,75.224z"/>
<g>
	<path style="fill:#194F82;" d="M75.184,137.09H50.747c-6.012,0-10.925,4.848-10.925,10.925c0,6.012,4.848,10.925,10.925,10.925
		h24.372c6.012,0,10.925-4.848,10.925-10.925S81.196,137.09,75.184,137.09z"/>
	<path style="fill:#194F82;" d="M75.184,174.133H50.747c-6.012,0-10.925,4.848-10.925,10.925c0,6.012,4.848,10.925,10.925,10.925
		h24.372c6.012,0,10.925-4.848,10.925-10.925C85.98,179.046,81.196,174.133,75.184,174.133z"/>
	<path style="fill:#194F82;" d="M392.469,166.569c0-31.547-22.82-57.859-52.687-63.03V42.965
		c-0.129-20.945-20.299-38.271-44.8-28.509L112.614,99.789H32.711C14.675,99.789,0,114.464,0,132.5v68.073
		c0,18.101,14.675,32.776,32.711,32.776h5.236c-0.905,17.455-6.077,87.725-7.176,114.877c-0.84,14.481,10.731,32.582,31.547,32.582
		h46.158c18.166-0.453,32-13.446,31.418-33.487c-0.711-10.99-1.616-20.816-2.715-29.996h4.202c6.012,0,10.925-4.848,10.925-10.925
		c0-6.012-4.848-10.925-10.925-10.925h-7.176c-0.84-5.818-6.723-41.956-8.404-56.113l169.18,79.192
		c22.885,9.891,45.64-7.37,44.8-28.509V229.47C369.584,224.298,392.469,198.117,392.469,166.569z M339.782,125.777
		c17.778,4.848,30.966,21.269,30.966,40.727s-13.188,35.879-30.966,40.727V125.777z M32.711,211.498
		c-6.012,0-10.925-4.848-10.925-10.925V132.5c0-6.012,4.848-10.925,10.925-10.925h71.37v89.859h-71.37V211.498z M108.412,358.892
		H62.255c-5.883-0.517-9.244-3.685-9.762-9.956c1.034-26.828,6.271-97.487,7.176-115.653h43.248
		c2.004,18.295,13.446,88.889,15.063,115.394C117.98,354.561,114.812,358.698,108.412,358.892z M304.162,298.9l-178.23-83.459
		v-97.875l178.166-83.459c6.723-2.457,13.446,1.099,13.834,8.792v247.143C318.384,296.121,311.79,302.262,304.162,298.9z"/>
</g>
<g>
	<path style="fill:#FFC10D;" d="M339.782,125.777v81.455c17.778-4.848,30.966-21.269,30.966-40.727S357.56,130.626,339.782,125.777z
		"/>
	<path style="fill:#FFC10D;" d="M59.798,233.284c-1.034,18.23-6.206,88.954-7.176,115.653c0.453,6.271,3.814,9.438,9.762,9.956
		h46.158c6.335-0.259,9.568-4.396,9.762-10.279c-1.681-26.505-13.123-97.034-15.127-115.394H59.798V233.284z"/>
</g>
</svg>