<?xml version="1.0" encoding="iso-8859-1"?>
<!-- Uploaded to: SVG Repo, www.svgrepo.com, Generator: SVG Repo Mixer Tools -->
<svg height="800px" width="800px" version="1.1" id="Layer_1" xmlns="http://www.w3.org/2000/svg" xmlns:xlink="http://www.w3.org/1999/xlink" 
	 viewBox="0 0 392.484 392.484" xml:space="preserve">
<path style="fill:#FFC10D;" d="M78.261,359.514v11.184h218.117v-11.184c0-6.012-4.848-10.925-10.925-10.925H89.122
	C83.174,348.589,78.261,353.502,78.261,359.514z"/>
<path style="fill:#56ACE0;" d="M304.976,173.397c-0.776-7.628-2.392-14.998-4.784-21.786h-0.065
	c-5.172,5.495-11.83,9.632-19.265,11.83l0,0c1.099,3.879,1.875,7.952,2.263,12.154c2.78,27.41-8.727,58.699-29.22,81.261
	c-0.065,0-0.065,0.065-0.129,0.065c3.814,4.59,6.723,9.891,8.339,15.838l1.552,5.624C292.5,251.231,308.726,210.892,304.976,173.397
	z"/>
<path style="fill:#FFC10D;" d="M224.879,121.615c0-24.048,19.523-43.572,43.572-43.572c7.822,0,15.127,2.069,21.463,5.689
	l21.204-21.204c4.331-5.236,4.267-10.343,0-15.386l-22.109-22.174c-4.913-4.719-11.184-4.008-15.386,0L171.74,126.981
	c-4.202,4.848-4.331,9.956,0,15.386l22.109,22.109c4.073,4.073,11.313,4.073,15.451,0l21.333-21.333
	C227.013,136.807,224.879,129.437,224.879,121.615z"/>
<polygon style="fill:#56ACE0;" points="159.716,191.95 159.716,191.95 175.037,176.565 159.716,161.114 144.265,176.565 "/>
<path style="fill:#FFC10D;" d="M254.294,326.803l-13.123-48.291c-2.457-9.051-10.667-15.321-20.04-15.321
	c-9.374,0-17.648,6.335-20.105,15.321l-13.123,48.291H254.294z"/>
<path style="fill:#FFFFFF;" d="M268.581,143.401c12.024,0,21.786-9.826,21.786-21.786s-9.826-21.786-21.786-21.786
	c-12.024,0-21.786,9.826-21.786,21.786S256.492,143.401,268.581,143.401z"/>
<path style="fill:#194F82;" d="M326.698,171.264c-1.745-16.937-6.723-32.323-14.675-45.899c0.065-1.228,0.129-2.392,0.129-3.685
	c0-8.339-2.392-16.097-6.465-22.691l20.881-20.881c12.347-12.154,12.994-32.776,0-46.222L304.459,9.647
	c-12.412-11.572-31.16-14.093-46.222,0L156.29,111.53c-8.339,8.598-10.99,18.941-8.663,30.772l-18.166,18.166
	c-9.244,8.727-8.598,23.79-0.129,32.065l14.158,14.158c7.887,8.275,23.273,9.568,32.065,0.129l18.36-18.23
	c12.412,2.521,22.497-0.776,30.772-8.663l21.075-21.075c3.685,2.327,7.887,4.008,12.218,5.107c1.745,4.267,2.909,8.986,3.491,13.964
	c2.263,22.238-7.887,48.032-25.471,66.327c-4.655-1.745-9.632-2.78-14.869-2.78c-19.135,0-36.073,12.929-41.115,31.418v0.129
	L73.348,220.136c-5.43-2.715-11.895-0.453-14.61,4.913c-2.715,5.366-0.453,11.96,4.978,14.61l110.416,54.691l-8.792,32.388H89.122
	c-18.036,0-32.711,14.675-32.711,32.711v22.109c0,6.012,4.848,10.925,10.925,10.925h240.032c6.012,0,10.925-4.848,10.925-10.925
	v-22.109c0-18.036-14.675-32.711-32.711-32.711h-8.663l-6.788-25.018C308.855,270.237,331.482,218.843,326.698,171.264z
	 M159.716,191.95L159.716,191.95L144.265,176.5l15.451-15.451l15.451,15.451L159.716,191.95z M224.879,121.615
	c0,7.822,2.069,15.127,5.689,21.463l-21.333,21.333c-4.202,4.073-11.378,4.073-15.451,0l-22.109-22.109
	c-4.331-5.43-4.202-10.537,0-15.386L273.494,24.969c4.202-4.008,10.408-4.719,15.386,0l22.109,22.174
	c4.267,4.913,4.331,10.149,0,15.386l-21.01,21.269c-6.335-3.62-13.705-5.689-21.463-5.689
	C244.467,78.043,224.879,97.631,224.879,121.615z M246.73,121.615c0-12.024,9.826-21.786,21.786-21.786
	c12.024,0,21.786,9.826,21.786,21.786s-9.826,21.786-21.786,21.786C256.492,143.401,246.73,133.704,246.73,121.615z
	 M201.025,278.577c2.457-9.051,10.667-15.321,20.105-15.321c9.374,0,17.648,6.335,20.04,15.321l13.123,48.291h-66.327
	L201.025,278.577z M285.583,348.589c6.012,0,10.925,4.848,10.925,10.925v11.184H78.261v-11.184c0-6.012,4.848-10.925,10.925-10.925
	H285.583z M263.797,278.512c0,0-2.715-14.675-9.891-21.463c0.065,0,0.065-0.065,0.129-0.065c20.493-22.562,32-53.851,29.22-81.261
	c-0.453-4.202-1.228-8.275-2.263-12.154l0,0c7.434-2.263,14.093-6.335,19.265-11.83h0.065c2.392,6.853,3.943,14.158,4.784,21.786
	C308.726,210.892,292.5,251.231,263.797,278.512z"/>
</svg>