<?xml version="1.0" encoding="iso-8859-1"?>
<!-- Uploaded to: SVG Repo, www.svgrepo.com, Generator: SVG Repo Mixer Tools -->
<svg version="1.1" id="Layer_1" xmlns="http://www.w3.org/2000/svg" xmlns:xlink="http://www.w3.org/1999/xlink" 
	 viewBox="0 0 392.469 392.469" xml:space="preserve">
<path style="fill:#FFC10D;" d="M45.964,43.572v305.325c0,12.024,9.826,21.786,21.786,21.786H88.63V21.786H67.749
	C55.79,21.786,45.964,31.547,45.964,43.572z"/>
<path style="fill:#FFFFFF;" d="M346.57,359.758V32.711c0-6.012-4.849-10.925-10.925-10.925H110.481v348.962h225.164
	C341.721,370.683,346.57,365.834,346.57,359.758z"/>
<path style="fill:#56ACE0;" d="M132.267,43.572v211.394h51.135c6.012,0,10.925,4.848,10.925,10.925
	c0,6.077-4.848,10.925-10.925,10.925h-51.135v25.794h18.36c6.012,0,10.925,4.848,10.925,10.925c0,6.012-4.848,10.925-10.925,10.925
	h-18.36v24.501h192.517V43.572H132.267z"/>
<rect x="167.757" y="74.925" style="fill:#FFFFFF;" width="121.341" height="86.109"/>
<g>
	<path style="fill:#194F82;" d="M335.644,0H67.749C43.701,0,24.178,19.523,24.178,43.572v305.325
		c0,24.048,19.523,43.572,43.572,43.572h267.83c18.036,0,32.711-14.675,32.711-32.711V32.711C368.355,14.675,353.681,0,335.644,0z
		 M88.63,370.747H67.749c-12.024,0-21.786-9.826-21.786-21.786V43.572c0-12.024,9.826-21.786,21.786-21.786H88.63V370.747z
		 M346.57,359.822c0,6.012-4.849,10.925-10.925,10.925H110.481V21.786h225.164c6.012,0,10.925,4.848,10.925,10.925V359.822z"/>
	<path style="fill:#194F82;" d="M300.024,52.881H156.768c-6.012,0-10.925,4.848-10.925,10.925v108.541
		c0,6.012,4.848,10.925,10.925,10.925h143.257c6.012,0,10.925-4.848,10.925-10.925V63.741
		C310.949,57.729,306.101,52.881,300.024,52.881z M289.164,161.422H167.693V74.667h121.471L289.164,161.422L289.164,161.422z"/>
</g>
</svg>