<?xml version="1.0" encoding="iso-8859-1"?>
<!-- Uploaded to: SVG Repo, www.svgrepo.com, Generator: SVG Repo Mixer Tools -->
<svg height="800px" width="800px" version="1.1" id="Layer_1" xmlns="http://www.w3.org/2000/svg" xmlns:xlink="http://www.w3.org/1999/xlink" 
	 viewBox="0 0 392.41 392.41" xml:space="preserve">
<path style="fill:#FFC10D;" d="M21.786,70.352v274.554c45.964-15.321,106.149-43.636,163.556-23.855V50.182
	C132.59,36.865,73.503,44.17,21.786,70.352z"/>
<path style="fill:#FFFFFF;" d="M325.947,110.821c-0.388,9.503-10.925,14.093-18.166,8.145l-18.747-16.679l-18.877,16.679
	c-7.24,6.594-17.455,1.422-18.166-8.145V43.847c-15.192,0.517-30.319,2.651-44.8,6.271v270.869
	c61.026-23.208,145.196,20.558,163.556,23.855V70.352c-14.481-7.37-29.543-13.123-44.8-17.455L325.947,110.821L325.947,110.821z"/>
<g>
	<path style="fill:#194F82;" d="M45.059,93.431c-5.689,2.004-8.663,8.21-6.659,13.899c2.069,5.43,7.952,8.792,13.899,6.659
		c33.358-11.766,68.913-16.097,102.853-12.541c5.947,0.711,11.378-3.685,11.96-9.632c0.646-6.012-3.685-11.378-9.762-11.96
		C120.307,75.912,81.455,80.631,45.059,93.431z"/>
	<path style="fill:#194F82;" d="M157.414,136.615c-37.107-3.943-75.895,0.776-112.356,13.705c-5.689,2.004-8.663,8.21-6.659,13.899
		c2.069,5.43,7.952,8.792,13.899,6.659c33.358-11.766,68.913-16.097,102.853-12.541c5.947,0.711,11.378-3.685,11.96-9.632
		C167.693,142.691,163.362,137.261,157.414,136.615z"/>
	<path style="fill:#194F82;" d="M157.414,193.504c-37.107-3.943-75.895,0.776-112.356,13.705c-5.689,2.004-8.663,8.21-6.659,13.899
		c2.069,5.43,7.952,8.792,13.899,6.659c33.358-11.766,68.913-16.097,102.853-12.541c5.947,0.711,11.378-3.685,11.96-9.632
		C167.693,199.451,163.362,194.15,157.414,193.504z"/>
	<path style="fill:#194F82;" d="M157.414,250.328c-37.107-3.943-75.895,0.776-112.356,13.705c-5.689,2.004-8.663,8.21-6.659,13.899
		c2.069,5.43,7.952,8.792,13.899,6.659c33.358-11.766,68.913-16.097,102.853-12.541c5.947,0.711,11.378-3.685,11.96-9.632
		C167.693,256.34,163.362,250.91,157.414,250.328z"/>
	<path style="fill:#194F82;" d="M386.844,54.19C347.539,32.922,279.337,8.033,196.267,30.594
		C175.386,24.712,98.004,5.706,5.689,54.19C2.133,56.065,0,59.75,0,63.758v296.016c0,3.426,1.616,6.659,4.331,8.727
		c2.715,1.939,5.883,2.909,9.568,1.681c67.685-21.721,125.673-50.23,177.131-22.82c3.168,1.681,6.659,1.616,10.343,0
		c59.604-30.707,120.436,7.952,177.131,22.82c3.103,1.099,6.271,0.323,9.568-1.681c2.78-2.069,4.331-5.301,4.331-8.727V63.758
		C392.533,59.75,390.4,56.065,386.844,54.19z M185.341,321.116c-57.406-19.782-117.592,8.469-163.556,23.79V70.352
		C73.503,44.17,132.59,36.865,185.341,50.182V321.116z M273.778,44.041c10.15,0.517,20.234,1.745,30.319,3.685v38.788l-7.887-7.046
		c-4.073-3.62-10.343-3.62-14.481,0l-7.887,7.111V44.106h-0.065V44.041z M370.747,344.906
		c-18.36-3.297-102.465-46.998-163.556-23.855V50.182c14.545-3.685,29.608-5.689,44.8-6.271v66.909
		c0.711,9.503,10.925,14.675,18.166,8.145l18.747-16.679l18.747,16.679c7.24,5.947,17.778,1.422,18.166-8.145V52.897
		c15.321,4.331,30.384,10.149,44.8,17.455v274.554H370.747z"/>
</g>
<path style="fill:#56ACE0;" d="M228.978,67.895v225.745c6.4-0.84,12.994-1.228,19.653-1.228c34.909,0,69.366,11.184,100.331,21.915
	V84.186c-7.564-3.297-15.192-6.206-23.014-8.598v35.297c-0.388,9.503-10.925,14.093-18.166,8.145l-18.747-16.679l-18.747,16.614
	c-7.24,6.594-17.455,1.422-18.166-8.145V65.568C244.234,65.891,236.541,66.603,228.978,67.895z"/>
<path style="fill:#FFC10D;" d="M296.21,79.532l7.887,7.046V47.79c-10.02-1.875-20.17-3.103-30.319-3.685v42.408l7.887-7.046
	C285.802,75.847,292.073,75.847,296.21,79.532z"/>
<g>
	<path style="fill:#194F82;" d="M243.846,136.615c30.448-3.943,62.255,0.776,92.186,13.705c4.655,2.004,7.111,8.21,5.495,13.899
		c-1.681,5.43-6.465,8.792-11.442,6.659c-27.41-11.83-56.566-16.097-84.364-12.541c-4.913,0.711-9.374-3.685-9.826-9.632
		C235.378,142.691,238.933,137.261,243.846,136.615z"/>
	<path style="fill:#194F82;" d="M243.846,193.504c30.448-3.943,62.255,0.776,92.186,13.705c4.655,2.004,7.111,8.21,5.495,13.899
		c-1.681,5.43-6.465,8.792-11.442,6.659c-27.41-11.766-56.566-16.097-84.364-12.541c-4.913,0.711-9.374-3.685-9.826-9.632
		C235.378,199.451,238.933,194.15,243.846,193.504z"/>
	<path style="fill:#194F82;" d="M243.846,250.328c30.448-3.943,62.255,0.776,92.186,13.705c4.655,2.004,7.111,8.21,5.495,13.899
		c-1.681,5.43-6.465,8.792-11.442,6.659c-27.41-11.83-56.566-16.162-84.364-12.541c-4.913,0.711-9.374-3.685-9.826-9.632
		C235.378,256.34,238.933,250.91,243.846,250.328z"/>
</g>
</svg>