<?xml version="1.0" encoding="iso-8859-1"?>
<!-- Uploaded to: SVG Repo, www.svgrepo.com, Generator: SVG Repo Mixer Tools -->
<svg height="800px" width="800px" version="1.1" id="Layer_1" xmlns="http://www.w3.org/2000/svg" xmlns:xlink="http://www.w3.org/1999/xlink" 
	 viewBox="0 0 392.576 392.576" xml:space="preserve">
<circle style="fill:#56ACE0;" cx="196.199" cy="196.154" r="156.186"/>
<path style="fill:#194F82;" d="M341.459,31.758c-42.343-42.343-111.321-42.343-153.665,0l-137.18,137.18
	c-4.267,4.267-4.267,11.119,0,15.386c4.267,4.267,11.119,4.267,15.386,0l137.18-137.051c33.939-33.875,89.018-33.875,122.893,0
	s33.875,89.018,0,122.893L143.189,353.115c-23.337,23.273-61.22,23.337-84.558,0c-23.273-23.337-23.273-61.22,0-84.558
	L204.15,123.038c12.994-11.636,27.927-13.834,46.158,0c12.347,14.545,13.123,29.802,0,46.158l-99.814,99.62
	c-4.267,4.267-4.267,11.119,0,15.386c4.267,4.267,11.119,4.267,15.386,0l99.685-99.685c21.269-21.721,21.204-54.691,0-76.994
	c-29.156-27.216-62.384-14.933-76.994,0L43.116,253.172c-31.741,31.741-31.741,83.523,0,115.329
	c13.446,16.097,65.939,44.994,115.394,0l182.949-183.079C383.868,143.143,383.868,74.166,341.459,31.758z"/>
</svg>