<?xml version="1.0" encoding="iso-8859-1"?>
<!-- Uploaded to: SVG Repo, www.svgrepo.com, Generator: SVG Repo Mixer Tools -->
<svg version="1.1" id="Layer_1" xmlns="http://www.w3.org/2000/svg" xmlns:xlink="http://www.w3.org/1999/xlink" 
	 viewBox="0 0 392.598 392.598" xml:space="preserve">
<path style="fill:#FFFFFF;" d="M279.758,137.309H112.84c-6.012,0-10.925,4.848-10.925,10.925v211.653
	c0,6.012,4.848,10.925,10.925,10.925h166.917c6.012,0,10.925-4.848,10.925-10.925V148.17
	C290.618,142.158,285.705,137.309,279.758,137.309z"/>
<rect x="138.376" y="21.851" style="fill:#FFC10D;" width="115.911" height="93.673"/>
<path style="fill:#56ACE0;" d="M257.907,159.095H134.691c-6.012,0-10.925,4.848-10.925,10.925v49.842h40.986
	c6.012,0,10.925,4.848,10.925,10.925s-4.848,10.925-10.925,10.925h-40.986v17.713h21.01c6.012,0,10.925,4.848,10.925,10.925
	c0,6.012-4.848,10.925-10.925,10.925h-21.01v56.889c0,6.012,4.848,10.925,10.925,10.925h123.281c6.012,0,10.925-4.848,10.925-10.925
	v-168.21C268.832,163.943,263.919,159.095,257.907,159.095z"/>
<g>
	<path style="fill:#194F82;" d="M279.758,115.523h-3.685V10.925C276.073,4.913,271.224,0,265.147,0H127.45
		c-6.012,0-10.925,4.848-10.925,10.925v104.598h-3.685c-18.036,0-32.711,14.675-32.711,32.711v211.653
		c0,18.036,14.675,32.711,32.711,32.711h166.917c18.036,0,32.711-14.675,32.711-32.711V148.17
		C312.469,130.198,297.729,115.523,279.758,115.523z M138.376,21.851h115.911v93.673H138.376V21.851z M290.618,359.887
		c0,6.012-4.848,10.925-10.925,10.925H112.84c-6.012,0-10.925-4.848-10.925-10.925V148.17c0-6.012,4.848-10.925,10.925-10.925
		h166.917c6.012,0,10.925,4.848,10.925,10.925v211.717H290.618z"/>
	<path style="fill:#194F82;" d="M166.497,39.111c-6.012,0-10.925,4.848-10.925,10.925v27.281c0,6.012,4.848,10.925,10.925,10.925
		c6.012,0,10.925-4.848,10.925-10.925V50.101C177.358,44.024,172.444,39.111,166.497,39.111z"/>
	<path style="fill:#194F82;" d="M226.23,39.111c-6.012,0-10.925,4.848-10.925,10.925v27.281c0,6.012,4.848,10.925,10.925,10.925
		c6.012,0,10.925-4.848,10.925-10.925V50.101C237.091,44.024,232.178,39.111,226.23,39.111z"/>
</g>
</svg>