<?xml version="1.0" encoding="iso-8859-1"?>
<!-- Uploaded to: SVG Repo, www.svgrepo.com, Generator: SVG Repo Mixer Tools -->
<svg version="1.1" id="Layer_1" xmlns="http://www.w3.org/2000/svg" xmlns:xlink="http://www.w3.org/1999/xlink" 
	 viewBox="0 0 392.663 392.663" xml:space="preserve">
<path style="fill:#FFFFFF;" d="M283.766,88.76h-56.113c-6.012,0-10.925-4.848-10.925-10.925V21.721h-107.83v111.321h174.869V88.76z"
	/>
<polygon style="fill:#FFC10D;" points="238.642,66.974 268.38,66.974 238.642,37.236 "/>
<path style="fill:#FFFFFF;" d="M339.103,321.228c5.301,0,9.632-4.331,9.632-9.632V164.719c0-5.301-4.331-9.632-9.632-9.632H53.624
	c-5.301,0-9.632,4.331-9.632,9.632v146.812c0,5.301,4.331,9.632,9.632,9.632"/>
<path style="fill:#194F82;" d="M339.103,133.107h-33.487V77.834c-0.065-3.168-1.164-5.689-3.168-7.758L235.41,3.168
	c-1.681-1.745-4.202-3.038-7.758-3.168H97.972C91.96,0,87.046,4.848,87.046,10.925v122.246H53.624
	c-17.39,0-31.547,14.158-31.547,31.547v146.812c0,17.39,14.158,31.547,31.547,31.547h33.487v38.659
	c0,6.012,4.848,10.925,10.925,10.925h196.59c6.012,0,10.925-4.848,10.925-10.925v-38.723h33.487
	c17.39,0,31.547-14.158,31.547-31.547V164.655C370.521,147.265,356.493,133.107,339.103,133.107z M238.642,37.236l29.737,29.737
	h-29.737V37.236z M108.897,21.786h107.895v56.113c0,6.012,4.848,10.925,10.925,10.925h56.113v44.347H108.897V21.786z
	 M283.766,370.747H108.897v-65.616h174.869V370.747z M348.735,311.467c0,5.301-4.331,9.632-9.632,9.632h-33.487v-26.958
	c0-6.012-4.848-10.925-10.925-10.925H97.972c-6.012,0-10.925,4.848-10.925,10.925v26.958H53.624c-5.301,0-9.632-4.331-9.632-9.632
	V164.655c0-5.301,4.331-9.632,9.632-9.632h285.414c5.301,0,9.632,4.331,9.632,9.632v146.812H348.735z"/>
<rect x="108.897" y="305.131" style="fill:#FFC10D;" width="174.869" height="65.616"/>
<g>
	<path style="fill:#194F82;" d="M325.657,173.705c-6.012,0-10.925,4.848-10.925,10.925V192c0,6.012,4.848,10.925,10.925,10.925
		c6.012,0,10.925-4.848,10.925-10.925v-7.37C336.517,178.554,331.669,173.705,325.657,173.705z"/>
	<path style="fill:#194F82;" d="M325.657,222.707c-6.012,0-10.925,4.848-10.925,10.925v7.37c0,6.012,4.848,10.925,10.925,10.925
		c6.012,0,10.925-4.848,10.925-10.925v-7.37C336.517,227.556,331.669,222.707,325.657,222.707z"/>
</g>
<path style="fill:#56ACE0;" d="M325.657,251.927c-6.012,0-10.925-4.848-10.925-10.925v-7.37c0-6.012,4.848-10.925,10.925-10.925
	c0.453,0,0.84,0.065,1.293,0.129v-20.105c-0.453,0.065-0.84,0.129-1.293,0.129c-6.012,0-10.925-4.848-10.925-10.925v-7.37
	c0-3.103,1.293-5.883,3.426-7.887H65.778v15.58h51.717c6.012,0,10.925,4.848,10.925,10.925c0,6.012-4.848,10.925-10.925,10.925
	H65.778v20.234h30.19c6.012,0,10.925,4.848,10.925,10.925c0,6.012-4.848,10.925-10.925,10.925h-30.19v43.184h21.333v-5.107
	c0-6.012,4.848-10.925,10.925-10.925h196.59c6.012,0,10.925,4.848,10.925,10.925v5.107h21.398v-47.58
	C326.497,251.798,326.109,251.927,325.657,251.927z"/>
</svg>