<?xml version="1.0" encoding="iso-8859-1"?>
<!-- Uploaded to: SVG Repo, www.svgrepo.com, Generator: SVG Repo Mixer Tools -->
<svg height="800px" width="800px" version="1.1" id="Layer_1" xmlns="http://www.w3.org/2000/svg" xmlns:xlink="http://www.w3.org/1999/xlink" 
	 viewBox="0 0 392.663 392.663" xml:space="preserve">
<path style="fill:#FFFFFF;" d="M138.343,186.602c0-8.275,1.034-16.226,2.78-23.984H31.547c-5.301,0-9.632,4.331-9.632,9.632v89.406
	c0,5.301,4.331,9.632,9.632,9.632h149.139C155.022,252.024,138.343,221.253,138.343,186.602z"/>
<path style="fill:#56ACE0;" d="M360.986,162.683h-12.154c1.745,7.758,2.78,15.709,2.78,23.984c0,34.586-16.679,65.358-42.343,84.945
	h51.717c5.301,0,9.632-4.331,9.632-9.632v-89.665C370.747,167.014,366.416,162.683,360.986,162.683z"/>
<path style="fill:#FFC10D;" d="M160.129,186.602c0,46.804,38.077,84.945,84.945,84.945s84.945-38.077,84.945-84.945
	s-38.077-84.945-84.945-84.945S160.129,139.798,160.129,186.602z"/>
<path style="fill:#194F82;" d="M360.986,140.897h-19.782c-17.131-36.008-53.786-60.962-96.259-60.962s-79.063,24.954-96.259,60.962
	H31.547C14.158,140.897,0,155.055,0,172.315v89.406c0,15.386,11.055,28.121,25.6,30.901v9.18c0,6.012,4.848,10.925,10.925,10.925
	s10.925-4.848,10.925-10.925v-8.663h297.762v8.663c0,6.012,4.848,10.925,10.925,10.925s10.925-4.848,10.925-10.925v-9.18
	c14.545-2.78,25.6-15.58,25.6-30.901v-89.406C392.533,155.055,378.376,140.897,360.986,140.897z M370.747,261.786
	c0,5.301-4.331,9.632-9.632,9.632h-51.717c25.665-19.459,42.343-50.23,42.343-84.945c0-8.275-1.034-16.226-2.78-23.984h12.154
	c5.301,0,9.632,4.331,9.632,9.632V261.786z M31.547,271.483c-5.301,0-9.632-4.331-9.632-9.632v-89.535
	c0-5.301,4.331-9.632,9.632-9.632h109.576c-1.745,7.758-2.78,15.709-2.78,23.984c0,34.586,16.679,65.358,42.343,84.945H31.547
	V271.483z M329.891,186.602c0,46.804-38.077,84.945-84.945,84.945S160,233.471,160,186.602s38.077-84.945,84.945-84.945
	S329.891,139.798,329.891,186.602z"/>
<path style="fill:#FFFFFF;" d="M245.01,169.147c-9.568,0-17.455,7.822-17.455,17.455c0,9.632,7.822,17.455,17.455,17.455
	c9.632,0,17.455-7.822,17.455-17.455C262.465,176.97,254.578,169.147,245.01,169.147z"/>
<g>
	<path style="fill:#194F82;" d="M245.01,147.362c-21.657,0-39.24,17.648-39.24,39.24s17.648,39.24,39.24,39.24
		s39.24-17.648,39.24-39.24S266.667,147.362,245.01,147.362z M245.01,203.992c-9.568,0-17.455-7.822-17.455-17.455
		c0-9.632,7.822-17.455,17.455-17.455c9.632,0,17.455,7.822,17.455,17.455C262.465,196.17,254.578,203.992,245.01,203.992z"/>
	<path style="fill:#194F82;" d="M50.747,179.362c-6.012,0-10.925,4.848-10.925,10.925v53.269c0,6.012,4.848,10.925,10.925,10.925
		s10.925-4.848,10.925-10.925v-53.333C61.673,184.21,56.76,179.362,50.747,179.362z"/>
	<path style="fill:#194F82;" d="M102.271,179.362c-6.012,0-10.925,4.848-10.925,10.925v53.269c0,6.012,4.848,10.925,10.925,10.925
		c6.012,0,10.925-4.848,10.925-10.925v-53.333C113.196,184.21,108.347,179.362,102.271,179.362z"/>
</g>
</svg>