<?xml version="1.0" encoding="iso-8859-1"?>
<!-- Uploaded to: SVG Repo, www.svgrepo.com, Generator: SVG Repo Mixer Tools -->
<svg height="800px" width="800px" version="1.1" id="Layer_1" xmlns="http://www.w3.org/2000/svg" xmlns:xlink="http://www.w3.org/1999/xlink" 
	 viewBox="0 0 392.598 392.598" xml:space="preserve">
<path style="fill:#FFC10D;" d="M31.547,306.214h329.568c5.301,0,9.632-4.331,9.632-9.632v-20.299c0-5.301-4.331-9.632-9.632-9.632
	H21.851v30.061C21.786,301.883,26.117,306.214,31.547,306.214z"/>
<path style="fill:#194F82;" d="M360.986,244.735H45.64L296.016,70.513c4.913-3.491,6.206-10.214,2.715-15.127
	c-3.426-4.913-10.214-6.206-15.127-2.715L4.655,246.674c-2.909,2.263-4.461,5.172-4.655,8.986v40.986
	c0,15.838,11.766,28.897,26.893,31.16v3.168c0,6.012,4.848,10.925,10.925,10.925s10.925-4.848,10.925-10.925v-2.844h295.111v2.844
	c0,6.012,4.849,10.925,10.925,10.925c6.012,0,10.925-4.848,10.925-10.925v-3.168c15.192-2.263,26.893-15.321,26.893-31.16v-20.299
	C392.533,258.828,378.376,244.735,360.986,244.735z M370.747,296.582c0,5.301-4.331,9.632-9.632,9.632H31.547
	c-5.301,0-9.632-4.331-9.632-9.632v-30.061h339.2c5.301,0,9.632,4.331,9.632,9.632V296.582z"/>
</svg>