<?xml version="1.0" encoding="iso-8859-1"?>
<!-- Uploaded to: SVG Repo, www.svgrepo.com, Generator: SVG Repo Mixer Tools -->
<svg height="800px" width="800px" version="1.1" id="Layer_1" xmlns="http://www.w3.org/2000/svg" xmlns:xlink="http://www.w3.org/1999/xlink" 
	 viewBox="0 0 392.571 392.571" xml:space="preserve">
<g>
	<path style="fill:#FFC10D;" d="M64.097,204.499l37.107-37.107c-21.269-15.968-51.2-15.774-74.214,0L64.097,204.499z"/>
	<path style="fill:#FFC10D;" d="M225.196,291.513l-37.107,37.107l37.042,37.042C240.84,343.489,240.905,313.558,225.196,291.513z"/>
</g>
<path style="fill:#194F82;" d="M379.83,0.152c-88.695,15.774-169.244,57.794-232.921,121.471l-30.19,30.19
	C84.008,126.018,35.459,127.311,3.2,158.988c-4.267,4.267-4.267,11.119,0,15.451l214.885,214.949c4.655,4.073,11.055,4.267,15.451,0
	c30.966-30.966,33.293-79.774,7.176-113.455l30.319-30.319c63.677-63.677,105.632-144.162,121.406-232.598
	C393.471,6.616,388.493-0.883,379.83,0.152z M188.089,328.556l37.107-37.107c15.58,22.109,15.58,51.976-0.065,74.085
	L188.089,328.556z M172.703,313.105L79.547,219.95l82.747-82.812C218.99,80.313,289.842,41.784,367.871,24.782
	c-17.002,77.964-55.531,148.751-112.291,205.446L172.703,313.105z M101.204,167.392l-37.107,37.107L26.99,167.392
	C49.939,151.618,79.935,151.425,101.204,167.392z"/>
<path style="fill:#56ACE0;" d="M177.745,152.459l-13.511,13.511l27.152,27.152c4.267,4.267,4.267,11.119,0,15.451
	c-4.073,4.073-12.412,2.909-15.451,0l-27.152-27.152l-13.253,13.253l9.051,9.051c4.267,4.267,4.267,11.119,0,15.451
	c-3.879,3.879-11.96,3.491-15.451,0l-9.051-9.051l-9.762,9.826l62.384,62.384l67.491-67.491
	c45.059-45.059,78.028-99.426,97.034-159.418C277.172,74.431,222.804,107.4,177.745,152.459z"/>
<path style="fill:#194F82;" d="M273.487,119.101c-14.158-14.158-37.107-14.158-51.2,0c-14.158,14.158-14.158,37.107,0,51.2
	c14.158,14.158,37.107,14.158,51.2,0C287.644,156.208,287.644,133.259,273.487,119.101z M258.101,154.98
	c-5.624,5.624-14.869,5.624-20.493,0s-5.624-14.804,0-20.493c5.624-5.689,14.869-5.624,20.493,0
	C263.725,140.111,263.79,149.291,258.101,154.98z"/>
<circle style="fill:#FFFFFF;" cx="247.822" cy="144.701" r="14.545"/>
<path style="fill:#FFC10D;" d="M41.083,351.635c19.071-7.564,36.331-15.451,40.016-19.071c5.818-5.818,5.818-15.127,0-20.945
	c-6.465-5.689-14.61-5.883-20.881,0C56.533,315.303,48.646,332.499,41.083,351.635z"/>
<path style="fill:#194F82;" d="M96.485,296.103c-15.515-14.998-37.947-13.511-51.782,0c-10.925,10.925-27.733,56.695-32.582,70.465
	c-3.038,7.111,3.491,17.067,13.899,13.899c13.77-4.848,59.475-21.721,70.465-32.582C110.772,333.598,110.772,310.39,96.485,296.103z
	 M81.099,311.554c5.818,5.818,5.818,15.127,0,20.945c-3.685,3.685-20.945,11.507-40.016,19.071
	c7.564-19.071,15.451-36.331,19.071-40.016C66.489,305.736,74.505,305.8,81.099,311.554z"/>
</svg>