<?xml version="1.0" encoding="iso-8859-1"?>
<!-- Uploaded to: SVG Repo, www.svgrepo.com, Generator: SVG Repo Mixer Tools -->
<svg height="800px" width="800px" version="1.1" id="Layer_1" xmlns="http://www.w3.org/2000/svg" xmlns:xlink="http://www.w3.org/1999/xlink" 
	 viewBox="0 0 392.624 392.624" xml:space="preserve">
<path style="fill:#FFFFFF;" d="M190.123,99.685h-50.166L87.27,304.162c-1.164,4.396,0.388,9.115,3.943,11.83l67.232,52.558
	c3.814,3.038,9.374,3.038,13.188,0l67.232-52.558c3.556-2.78,5.107-7.434,3.943-11.83L190.123,99.685z"/>
<path style="fill:#FFC10D;" d="M173.25,121.471h-16.356l-23.467,91.087h22.238c6.012,0,10.925,4.848,10.925,10.925
	c0,6.012-4.848,10.925-10.925,10.925h-27.863l-7.822,30.19h6.271c6.012,0,10.925,4.848,10.925,10.925
	c0,6.012-4.848,10.925-10.925,10.925h-11.895l-4.267,16.614l54.949,42.99l54.949-42.99L173.25,121.471z"/>
<g>
	<polygon style="fill:#56ACE0;" points="136.078,77.834 194.002,77.834 217.985,53.463 186.826,21.786 143.254,21.786 
		112.095,53.463 	"/>
	<polygon style="fill:#56ACE0;" points="304.676,233.891 302.802,218.44 228.846,162.586 237.832,197.172 289.808,236.541 	"/>
</g>
<path style="fill:#194F82;" d="M327.561,241.648l-3.556-30.319c-0.388-2.909-1.875-5.624-4.267-7.434l-99.556-75.248l-9.438-36.525
	l30.448-30.901c4.202-4.267,4.202-11.055,0-15.321l-42.02-42.667C197.105,1.164,194.325,0,191.351,0h-52.687
	c-2.909,0-5.689,1.164-7.822,3.232L89.016,45.834c-4.202,4.267-4.202,11.055,0,15.321L119.4,92.057L66.066,298.731
	c-3.297,12.8,1.228,26.376,11.636,34.457l67.232,52.622c11.766,8.792,28.38,9.374,40.016,0l67.232-52.558
	c10.343-8.145,14.933-21.657,11.636-34.457l-17.261-67.62l33.939,25.665c2.004,2.004,7.952,2.78,8.469,2.004l29.608-5.236
	C324.264,252.574,328.143,247.337,327.561,241.648z M112.095,53.463l31.16-31.677h43.572l31.16,31.677l-23.984,24.372h-57.923
	L112.095,53.463z M238.931,315.992l-67.232,52.558c-3.814,3.038-9.374,3.038-13.188,0l-67.232-52.558
	c-3.556-2.78-5.107-7.434-3.943-11.83l52.687-204.477h50.166l52.687,204.477C243.909,308.558,242.357,313.212,238.931,315.992z
	 M289.808,236.541l-51.976-39.305l-8.857-34.586l73.891,55.855l1.875,15.451L289.808,236.541z"/>
</svg>